<svg version="1.1" xmlns="http://www.w3.org/2000/svg" xmlns:xlink="http://www.w3.org/1999/xlink" aria-hidden="true"
    x="0px" y="0px"
    width="25px" height="27px"
    viewBox="0 0 259.67 279.84" style="enable-background:new 0 0 259.67 279.84;" xml:space="preserve">
    <path d="M201.65,192.65c17.23,17.52,34.15,34.76,51.13,51.94,5.26,5.33,8,11.5,6.47,19a19.16,19.16,0,0,1-13.63,15.21c-7.91,2.5-14.85.39-20.59-5.4-14.77-14.92-29.44-29.95-44.19-44.9-3.26-3.31-6.24-8.31-10.12-9.19-3.51-.81-8.06,3-12.16,4.66-68,28.26-144.82-14.5-156.9-87.35C-8.61,74.59,29.74,16.4,89.81,2.8c61.49-13.92,123.3,25.45,136.81,87.35,7.94,36.35.27,69.35-22.22,99Zm-11.91-76.42c0-42.09-33.65-76.35-74.9-76.41-41.5,0-75.19,34.37-75.13,76.72,0,42.08,33.69,76.37,74.94,76.4C156.14,193,189.83,158.58,189.74,116.23Z"/>
</svg>
